<svg id="Ebene_1" data-name="Ebene 1" xmlns="http://www.w3.org/2000/svg" xmlns:xlink="http://www.w3.org/1999/xlink" viewBox="0 0 600 600"><defs><style>.cls-1{fill:none;}.cls-2{clip-path:url(#clip-path);}.cls-3{fill:#4d4d4d;}</style><clipPath id="clip-path" transform="translate(0 0)"><rect class="cls-1" width="600" height="600"/></clipPath></defs><g id="Ebene_2" data-name="Ebene 2"><g id="Ebene_1-2" data-name="Ebene 1-2"><rect class="cls-1" width="600" height="600"/><g class="cls-2"><path class="cls-3" d="M255.23,450.09,284,466.77l-8.53,32.15,26.31-21.83,28.77,16.68L318,463.59l26.31-21.82-34,3.18-12.5-30.18-8.55,32.14ZM72.3,358.27l1.22-80.65h-.46c-.32-.19-.64-.35-1-.56-3.37-1.18-7.18-1.24-11-1.3-7.31-.11-28,2-46.08,4.7,2.93,14.8,17.92,38.74,26.65,50.22a5.15,5.15,0,0,1,.82,4.86,5,5,0,0,1-.93,2.57c-6.65,13.59-19.78,29.8-21.93,45,4.54.74,9.3.07,14,.09,11.19,0,71.26,3.63,80.07,3.81Zm238.6-183.8L343.08,163,310,154.31l-1.43-32.63-19,27.28L256.5,140.3l21.32,25.52-19,27.28L291,181.59l21.32,25.52ZM483.38,321.6l-14.53.77,2.31,44.08-10.8.57-2.31-44.09-14.61.77-.47-9.08,39.93-2.09Zm-55.26-7.1-6.48,52.84-9.32-1.15q-3.74-10.06-7.58-20.08t-8.18-19.51L392,363.7l-10.44-1.28,6.49-52.84,9.73,1.19c.56.93,1.26,2.16,2.09,3.69s1.72,3.26,2.68,5.19,1.95,4,3,6.17,2.05,4.41,3.05,6.67,1.93,4.5,2.81,6.72,1.67,4.3,2.36,6.24l4-32.23Zm-56.75-8.69-2.27,8.49-21.25-5.69-3.12,11.63,18.07,4.85-2.27,8.49-18.07-4.84L338.63,343l22.52,6-2.29,8.53-33-8.85,13.78-51.42Zm-44.89-13.46q-3.42,5.55-8.2,12.69t-9.56,13.69Q304,325.27,300,330.25t-6.74,8.32l-8.13-2.18q-1.06-5.86-2-12.83t-1.67-14.37q-.75-7.41-1.27-14.92t-.71-14.5l11.21,3q.18,7.68.73,17.64t1.87,22.37q7.27-10.09,12.68-18.41t9.5-15Zm-60.42-16.54-2.28,8.49-21.24-5.69-3.12,11.63,18.06,4.85-2.27,8.49-18.07-4.84L233.32,313l22.51,6-2.29,8.53-33-8.85L234.3,267.3Zm-53.61,11.34-1.23,10-21.16-2.6,1.23-10Zm-37.07-29-1.86,53.2L162.64,311l1.86-53.2Zm-26.54,9.33-21,1.1.63,12,16.66-.88.46,8.78L129,289.3l1.2,23.7-10.87.57-2.78-53.16,31.83-1.67Zm348.34,12.19c-121,49.15-274.18-85.25-395.64-39.85a141.76,141.76,0,0,0-17.89,7.66q.46,52.11.95,104.39c26.55-16.92,88.32-27.78,154.29-7.43,65.76,17.5,134,43.36,169.5,45.72,27.9,3.22,33.8,1.88,39.81,2,6-.48,12,.51,39.24-5.72a216,216,0,0,0,28.49-9.31q-.48-53.6-1-107.37c-6.6,4.34-13,8.06-17.77,9.9m59.59,1.41c6.24-12.51,18.9-27.57,20.59-41.41-4.55-.54-9.29.21-14,.34-11.19.31-71.34-1.21-80.15-1.12l42.25,24.82,1.14,73.1H527c.32.16.65.3,1,.48,3.41,1,7.21.91,11,.85,7.31-.11,27.9-2.67,45.92-5.61-3.37-13.31-19.05-34.57-28.11-44.71a4.36,4.36,0,0,1-1-4.38,4.44,4.44,0,0,1,.87-2.35" transform="translate(0 0)"/></g></g></g></svg>