<svg id="Ebene_1" data-name="Ebene 1" xmlns="http://www.w3.org/2000/svg" xmlns:xlink="http://www.w3.org/1999/xlink" viewBox="0 0 600 600"><defs><style>.cls-1{fill:none;}.cls-2{clip-path:url(#clip-path);}.cls-3{fill:red;}</style><clipPath id="clip-path" transform="translate(0 0)"><rect class="cls-1" width="600" height="600"/></clipPath></defs><g id="Ebene_2" data-name="Ebene 2"><g id="Ebene_1-2" data-name="Ebene 1-2"><rect class="cls-1" width="600" height="600"/><g class="cls-2"><path class="cls-3" d="M235.51,342.56a8.8,8.8,0,1,0,4.86-11.46h0a8.8,8.8,0,0,0-4.85,11.45m25-45.59L247,263.43l-33.74,13.63a3.67,3.67,0,0,0-2,4.8h0L222,308.55a3.68,3.68,0,0,0,4.78,2.06h0Zm43.93-21.74-10.78-26.69a3.7,3.7,0,0,0-4.81-2L255.1,260.13l13.55,33.54L302.39,280a3.69,3.69,0,0,0,2-4.81m13.86,33.88a8.8,8.8,0,1,0-4.86,11.46,8.8,8.8,0,0,0,4.86-11.46h0m-61.8,92.46,87.7-35.44-10.26-4.64L260.65,391.1Zm124-35L361.87,374l-8.63-3.89L252.82,410.78l-3.5,8.79-18.59,7.51,18.84-47.32,18.58-7.51-3.84,9.63,60.58-24.47-9.45-4.26L334,345.64ZM323,341.66l-68.27,27.58A22.19,22.19,0,0,1,225.87,357l-31-76.73c-2.3-5.68,3.86-33.91,43.45-49.9,40.18-16.24,63.63,0,65.92,5.71l31,76.72A22.19,22.19,0,0,1,323,341.66M289.34,144.2l-15.2,6.11a1.92,1.92,0,0,1-2.51-1v0l-6.1-15.19a1.94,1.94,0,0,1,1.07-2.52l15.21-6.11a1.85,1.85,0,0,1,2.48,1.06l6.1,15.2a1.93,1.93,0,0,1-1.08,2.51h0m-44.69,17.88-15.19,6.11a2,2,0,0,1-1.48,0,2,2,0,0,1-1-1.06l-6.1-15.2a1.94,1.94,0,0,1,1.07-2.51l15.19-6.11a2,2,0,0,1,1.48,0,1.92,1.92,0,0,1,1,1.06l6.12,15.19a2,2,0,0,1-1.08,2.52M200,180l-15.18,6.1A1.94,1.94,0,0,1,182.3,185l-6.1-15.18a2,2,0,0,1,0-1.48,1.92,1.92,0,0,1,1.06-1l15.22-6.12a1.93,1.93,0,0,1,2.51,1.08h0l6,15.11a1.91,1.91,0,0,1-1,2.54l0,0m-44.7,17.83L140.09,204a2,2,0,0,1-2.52-1.08l-6.09-15.19a1.94,1.94,0,0,1,1.07-2.52l15.21-6.11a1.9,1.9,0,0,1,1.48,0,2,2,0,0,1,1,1.06l6.09,15.19a1.93,1.93,0,0,1-1.07,2.51M416,373,298.13,80.62A26.43,26.43,0,0,0,263.76,66L104.28,129.83A26.3,26.3,0,0,0,89.56,164l0,.09L207.51,456.47a26.46,26.46,0,0,0,34.38,14.62l159.47-63.83A26.3,26.3,0,0,0,416,373.08l0-.08m94.36,62.91L392.49,143.53a26.44,26.44,0,0,0-34.38-14.61l-13,5.19,11.77,29.17,5.4-2.15a2.94,2.94,0,0,1,1.17-.23,3.17,3.17,0,0,1,2.92,2l111.72,277a3.06,3.06,0,0,1,0,2.41,3.22,3.22,0,0,1-1.75,1.69L431.1,462.15l-14.66-36.28a48.57,48.57,0,0,1-6.32,3.29l-22.61,9,14.37,35.63-69.81,28A3.12,3.12,0,0,1,328,500l-13.21-32.73L285.59,479l16.28,40.36A26.45,26.45,0,0,0,336.24,534l159.48-63.82A26.3,26.3,0,0,0,510.44,436l0-.09" transform="translate(0 0)"/></g></g></g></svg>