<svg id="Ebene_1" data-name="Ebene 1" xmlns="http://www.w3.org/2000/svg" xmlns:xlink="http://www.w3.org/1999/xlink" viewBox="0 0 600 600"><defs><style>.cls-1{fill:none;}.cls-2{clip-path:url(#clip-path);}.cls-3{fill:#4d4d4d;}</style><clipPath id="clip-path" transform="translate(0 0)"><rect class="cls-1" width="600" height="600"/></clipPath></defs><g id="Ebene_2" data-name="Ebene 2"><g id="Ebene_1-2" data-name="Ebene 1-2"><g id="Ebene_1-2-2" data-name="Ebene 1-2-2"><rect class="cls-1" width="600" height="600"/><g class="cls-2"><path class="cls-3" d="M451.62,219h27.84C446.91,137.19,367,79.37,273.62,79.37c-122.31,0-221.46,99.15-221.46,221.46S151.31,522.3,273.62,522.3a221.19,221.19,0,0,0,74.24-12.77c-12.78-6.19-12.79-21.47-12.79-21.47v-1.2a195.58,195.58,0,0,1-61.45,9.85c-108.17,0-195.87-87.7-195.87-195.88S165.45,105,273.62,105a195.93,195.93,0,0,1,178,114M196,200.05l76.72,103.7-47.89,57.19c-8.21,10.85-4.34,17.05,0,21.39,5.43,3.56,16.43,2.94,22.32-3.72l56.72-68.82c3.26-4.81,2.33-10.08-1.39-13l-83.23-111.6a13.84,13.84,0,0,0-11.57-5.75c-3.85.05-7.18,1.56-8.42,3-5.58,4-7,9.92-3.26,17.67m221.31,97.71a6.8,6.8,0,0,0,1.68-4.53,6,6,0,0,0-5.7-6.29h-22.4a5.57,5.57,0,0,0-4.06,1.84,6.64,6.64,0,0,0-1.69,4.45c0,3.51,2.58,6.37,5.75,6.37h22.33a5.49,5.49,0,0,0,4.07-1.84m58.35,75.37a6.53,6.53,0,0,0,1.68-4.45,6,6,0,0,0-5.7-6.29H449.24a5.56,5.56,0,0,0-4.07,1.84,6.53,6.53,0,0,0-1.68,4.45,6,6,0,0,0,5.68,6.3h22.4a5.46,5.46,0,0,0,4.07-1.85M534,448.53a6.55,6.55,0,0,0,1.68-4.46,6.05,6.05,0,0,0-5.75-6.3H507.59a5.46,5.46,0,0,0-4.07,1.85,6.63,6.63,0,0,0-1.68,4.45,6,6,0,0,0,5.68,6.3h22.4a5.49,5.49,0,0,0,4.07-1.84m11.66-4.46a17.22,17.22,0,0,1-17.19,17.23h-3.6v9.75a6.13,6.13,0,0,1-12.26,0V461.3h-3.51a17.23,17.23,0,0,1,0-34.46h3.53V266.27a6.13,6.13,0,0,1,12.26,0V426.84h3.56a17.25,17.25,0,0,1,17.23,17.23M487.3,368.68a17.22,17.22,0,0,1-17.21,17.23H466.5v85.14a6.13,6.13,0,0,1-12.25,0V385.91h-3.51a17.23,17.23,0,1,1-.83-34.45h4.34V266.27a6.13,6.13,0,1,1,12.25-.5,4.17,4.17,0,0,1,0,.5v85.19h3.57a17.24,17.24,0,0,1,17.23,17.22M429,293.24a17.36,17.36,0,0,1-5,12.18,17.13,17.13,0,0,1-12.23,5.1h-3.52V471.05a6.13,6.13,0,0,1-12.25,0V310.52h-3.57a17.25,17.25,0,0,1,0-34.5H396v-9.75a6.13,6.13,0,1,1,12.25-.5,4.17,4.17,0,0,1,0,.5V276h3.52A17.24,17.24,0,0,1,429,293.24M554.5,475.36V261.17s0-21-22-21H376.06s-22,0-22,21V475.36s0,21,22,21H532.42s22,0,22-21" transform="translate(0 0)"/></g></g></g></g></svg>