<svg id="Ebene_1" data-name="Ebene 1" xmlns="http://www.w3.org/2000/svg" xmlns:xlink="http://www.w3.org/1999/xlink" viewBox="0 0 600 600"><defs><style>.cls-1{fill:none;}.cls-2{clip-path:url(#clip-path);}.cls-3{fill:red;}</style><clipPath id="clip-path" transform="translate(0 0)"><rect class="cls-1" width="600" height="600"/></clipPath></defs><g id="Ebene_2" data-name="Ebene 2"><g id="Ebene_1-2" data-name="Ebene 1-2"><rect class="cls-1" width="600" height="600"/><g class="cls-2"><path class="cls-3" d="M236.94,103c-.3-1.17-4.62.13-5.8.43-22.54,5.84-17.56,13.88-23.18,22.42-4.7,7.15-9.47,14.41-13.9,21.8,3.92-23.59-.86-50.85-4-54.75-.76-1-5.26-3.81-6.07-2.9-10.2,11.4-12.16,25.9-13.79,36-1.13,7-2.18,13.68-3,20.23a152,152,0,0,0-11.08-13.48c-11-12-5.37-22.71-28-27.93-1.19-.27-5.55-1.46-5.82-.28-1.4,6.08,11.77,49.81,33.1,68.84.26,0,.49-.08.75-.08h47c.65,0,1.26.17,1.9.19C226.3,154.21,238.55,109.11,237,103m5.87,110c2.58-18-15.92-33.65-39.68-33.65h-47c-23.76,0-42.26,15.68-39.68,33.65l3.31,23h51a3.82,3.82,0,0,1,3.81,3.81v.77a3.83,3.83,0,0,1-3.81,3.81H121l4.7,32.74h25.77a3.82,3.82,0,0,1,3.81,3.82v.77a3.83,3.83,0,0,1-3.81,3.81H126.9l4.7,32.74h57.64a3.82,3.82,0,0,1,3.81,3.82v.77a3.83,3.83,0,0,1-3.81,3.81H132.81l4.71,32.74h39.22a3.82,3.82,0,0,1,3.81,3.82V364a3.82,3.82,0,0,1-3.81,3.82h-38l4.71,32.74h23.23a3.82,3.82,0,0,1,3.81,3.81v.78a3.82,3.82,0,0,1-3.81,3.81h-22l15.46,107.57c1.09,7.58,9.52,13.33,19.55,13.33s18.46-5.75,19.55-13.33Zm67,210.93-56,79.06A13.11,13.11,0,0,0,257,521.28l.29.2,9.22,6.17a13.11,13.11,0,0,0,18.19-3.6l.2-.31,23.29-36.94ZM366,212.53l-6.27-105a3.51,3.51,0,0,0-3.51-3.3,3.79,3.79,0,0,0-3.79,3.79h0v82.47a3.79,3.79,0,0,1-3.79,3.79h-.2a3.79,3.79,0,0,1-3.79-3.79h0V108.06a3.79,3.79,0,0,0-3.79-3.79h-1a3.79,3.79,0,0,0-3.79,3.79h0v82.47a3.79,3.79,0,0,1-3.79,3.79h-.2a3.79,3.79,0,0,1-3.79-3.79h0V108.06a3.79,3.79,0,0,0-3.79-3.79h-1a3.79,3.79,0,0,0-3.8,3.78h0v82.47a3.79,3.79,0,0,1-3.79,3.79h-.19a3.79,3.79,0,0,1-3.79-3.79h0V108.06a3.79,3.79,0,0,0-3.79-3.79H308a3.51,3.51,0,0,0-3.51,3.3l-6.27,105c-1,16.28,9.06,30.17,22.5,30.37l-7.3,270.68a13.13,13.13,0,0,0,12.76,13.48h11.45A13.11,13.11,0,0,0,350.75,514v-.36l-7.3-270.68c13.44-.2,23.47-14.09,22.5-30.37m129-36.64c-18-12-59,9.35-81.12,43.41-10.79,16.66-15.78,45.91-4,63.37l-57.11,80.61,1.36,50.51,74.69-118.45c20.64,4.22,45.77-11.56,57-27.9,23-33.42,27.13-79.51,9.14-91.55" transform="translate(0 0)"/></g></g></g></svg>