<svg id="Ebene_1" data-name="Ebene 1" xmlns="http://www.w3.org/2000/svg" xmlns:xlink="http://www.w3.org/1999/xlink" viewBox="0 0 600 600"><defs><style>.cls-1{fill:none;}.cls-2{clip-path:url(#clip-path);}.cls-3{fill:red;}</style><clipPath id="clip-path" transform="translate(0 0)"><rect class="cls-1" width="600" height="600"/></clipPath></defs><g id="Ebene_2" data-name="Ebene 2"><g id="Ebene_1-2" data-name="Ebene 1-2"><rect class="cls-1" width="600" height="600"/><g class="cls-2"><path class="cls-3" d="M351.27,449.76H274.73v7.7c0,5.54,4.78,10,10.72,10h55.14c5.94,0,10.68-4.42,10.68-10Zm-106.5,0H168.23v7.7c0,5.54,4.78,10,10.73,10H234.1c5.94,0,10.67-4.42,10.67-10Zm-106.5,0H61.74v7.7c0,5.54,4.78,10,10.72,10H127.6c5.94,0,10.67-4.42,10.67-10ZM61.74,169.91h76.53v-7.7c0-5.54-4.73-10-10.67-10H72.46c-5.94,0-10.72,4.47-10.72,10Zm0,15h76.53v-7.7H61.74Zm20.08,40.41h13.1v53.42h25.7v10.62H81.82ZM61.74,427.37h76.53V192.25H61.74Zm0,15h76.53v-7.7H61.74Zm106.49-272.5h76.54v-7.7c0-5.54-4.73-10-10.67-10H179c-6,0-10.73,4.47-10.73,10Zm0,15h76.54v-7.7H168.23Zm18.92,40.41h39.56V235.9H200.25v14.49h22.5V261h-22.5v17.77h28v10.62h-41.1ZM168.23,427.37h76.54V192.25H168.23Zm0,15h76.54v-7.7H168.23Zm106.5-272.5h76.54v-7.7c0-5.54-4.74-10-10.68-10H285.45c-5.94,0-10.72,4.47-10.72,10Zm0,15h76.54v-7.7H274.73Zm38.79,51.48a22.49,22.49,0,0,0-5.72-.67h-5.62V253.9h4.59a15.88,15.88,0,0,0,7.49-1.53,7.24,7.24,0,0,0,3.67-3.76,12.29,12.29,0,0,0,.81-4.2,9.41,9.41,0,0,0-1.33-5.38,6.46,6.46,0,0,0-3.89-2.64m-24.17-11.07H309a37.52,37.52,0,0,1,9.95,1.22,21.12,21.12,0,0,1,7.38,3.55,15,15,0,0,1,4.57,5.79,19.33,19.33,0,0,1,1.55,7.94,20.51,20.51,0,0,1-1.19,7.07,16.2,16.2,0,0,1-3.33,5.53,22.64,22.64,0,0,1-4.62,3.83,93.2,93.2,0,0,1,8.83,12.58,178.24,178.24,0,0,1,8.68,16.54H326q-2.29-4.55-5.2-9.57t-5.74-9.13a70.85,70.85,0,0,0-4.81-6.37h-8.1v25.07h-12.8ZM274.73,427.37h76.54V192.25H274.73Zm0,15h76.54v-7.7H274.73Zm109.71-251,71.92-26.17-2.64-7.2c-1.89-5.2-7.87-7.78-13.45-5.75l-51.81,18.86h0c-5.59,2-8.55,7.87-6.66,13.07Zm5.13,14.1,71.92-26.18-2.64-7.24-71.92,26.18Zm83.88,80.63q-9.51-8.76-19.09-17.38t-19.42-16.45l15.38,42.25-11.88,4.32-21.91-60.18,11.08-4c1.11.67,2.53,1.6,4.26,2.81s3.63,2.57,5.71,4.1,4.27,3.2,6.57,5,4.61,3.61,6.91,5.49,4.52,3.76,6.68,5.66,4.14,3.7,5.94,5.4l-13.36-36.71,11.84-4.31,21.91,60.18Zm-1,147.21,71.92-26.18L464,186.25l-71.92,26.18Zm5.15,14.14,71.92-26.18L546.88,414,475,440.27ZM552,428.17l-71.92,26.18,2.63,7.23c1.9,5.21,7.9,7.73,13.48,5.69L548,448.42c5.58-2,8.52-7.81,6.62-13Z" transform="translate(0 0)"/></g></g></g></svg>