<svg id="Ebene_1" data-name="Ebene 1" xmlns="http://www.w3.org/2000/svg" xmlns:xlink="http://www.w3.org/1999/xlink" viewBox="0 0 600 600"><defs><style>.cls-1{fill:none;}.cls-2{clip-path:url(#clip-path);}.cls-3{fill:#4d4d4d;}</style><clipPath id="clip-path" transform="translate(0 0)"><rect class="cls-1" width="600" height="600"/></clipPath></defs><g id="Ebene_2" data-name="Ebene 2"><g id="Ebene_1-2" data-name="Ebene 1-2"><g id="Ebene_2-2" data-name="Ebene 2-2"><g id="Ebene_1-2-2" data-name="Ebene 1-2-2"><rect class="cls-1" width="600" height="600"/><g class="cls-2"><path class="cls-3" d="M463,312.8c-65.42,29.21,1.59,86.06-11.29,101.28C441.49,426.1,386,424.9,386,424.9c64-16-59.39-110.64-59.39-110.64L353.8,291.9C372.8,305.58,476,307,463,312.8m-145.82,7.05c50.54,36.37,86.61,76.85,66,101.23-10.19,12-54.57,11.19-54.57,11.19,57.7-12.71-45.84-92.78-45.84-92.78Zm-43.63,24.9C324,381.13,339.86,416.82,328,427.14s-69.3,7.39-69.3,7.39c79.72-.17-19.59-70.14-19.59-70.14Zm281.16,43.81c2-35.63-4.41-64.55-20.49-84.78h0c-.54-.66-1-1.36-1.49-2a101.76,101.76,0,0,1-7.47-37.86c-.35-40.74-19.16-18-20.64-11.74-3.28,13.76-2.71,44.79-61.81,43.71A192,192,0,0,1,365.26,278c10.91-12.47,11-26,7.08-31-8-10.28-7.21-21.57-18.79-29.8-6.18-4.38-20.88,2.1-39.48,34.94C298,280.51,265,303.21,265,303.21l1.76-.23c-43.85,34-82.22,49.42-82.22,49.42l.37.74c-86.75,38.24-94.13,21-117.37,37.22-3.93,2.76-15.37,13.76-14.86,23.35a1.76,1.76,0,0,1,.4.07c-.24.56-.35.88-.35.88l3.21,11.46a51.9,51.9,0,0,0,6.46,2.66c3.06,4.18,7.48,5.77,10.44,6.72,1.92.63,4,1.27,6.12,1.93l.25.08c2.13.67,4.37,1.33,6.71,2H86c2.37.66,4.82,1.34,7.35,2l.24.06c2.43.64,4.94,1.26,7.5,1.88l.58.14c2.61.62,5.27,1.22,8,1.8h.15c2.73.57,5.52,1.13,8.34,1.64l.58.1q4,.72,8.08,1.33l.72.11c2.86.42,5.75.79,8.62,1.1,24,2.59,81,7.35,121,5.53s91.33-10.34,125.33-17.06c26.92-5.32,148.45-16.88,172.31-31.75a46.19,46.19,0,0,0-.77-7.51c.28-3.48.46-6.93.58-10.35h.07m7.76,42.67c-.09-1.68-.19-3.55-.29-5.49,1.06,22-1.09,43.42-111.44,46.26-40,1-86.74-2.68-154.5,6.13-100.28,13-161.24-3.5-194-18.17-26.95-12.09-49.79-24.57-50.66-33-.08-1.28-.14-2.52-.17-3.79.09,4.38.39,8.41.57,11.3.86,8.47,23.7,21,50.65,33,32.71,14.66,91.73,28.63,192.45,20.5,68.93-5.57,116-7.42,156-8.46,113.72-2.93,112.53-25.63,111.34-48.28" transform="translate(0 0)"/></g></g></g></g></g></svg>