<svg id="Ebene_1" data-name="Ebene 1" xmlns="http://www.w3.org/2000/svg" xmlns:xlink="http://www.w3.org/1999/xlink" viewBox="0 0 600 600"><defs><style>.cls-1{fill:none;}.cls-2{clip-path:url(#clip-path);}.cls-3{fill:red;}</style><clipPath id="clip-path" transform="translate(0 0)"><rect class="cls-1" width="600" height="600"/></clipPath></defs><g id="Ebene_2" data-name="Ebene 2"><g id="Ebene_1-2" data-name="Ebene 1-2"><rect class="cls-1" width="600" height="600"/><g class="cls-2"><path class="cls-3" d="M430.29,429a23,23,0,1,1-.05.05l.05-.05m-17.4-3.27A39,39,0,1,0,427,411.62l-96.73-96.74A10,10,0,0,0,316.16,329ZM289.5,508a23,23,0,1,1,23,23h0a23,23,0,0,1-23-23m-15.95,0a39,39,0,1,0,51-37.08V388.8a10,10,0,0,0-3.54-7.57c-.16-.19-.29-.4-.47-.58l-28-28a10,10,0,0,0-14.13,14.13L304.58,393v76.92a39,39,0,0,0-31,38.17M532.34,311.27a23,23,0,1,1-23-23,23,23,0,0,1,23,23h0m-123-187.58a10.89,10.89,0,1,1-10.9-10.88h0a10.88,10.88,0,0,1,10.88,10.88h0m-39.92,0a10.89,10.89,0,1,1-10.9-10.88h0a10.88,10.88,0,0,1,10.88,10.88h0m-39.92,0a10.89,10.89,0,1,1-10.9-10.88h0a10.88,10.88,0,0,1,10.88,10.88h0M548.3,311.27a39,39,0,0,0-77.17-8H444.34a7.19,7.19,0,0,0,.53-2.71V105a23.63,23.63,0,0,0-23.6-23.6H89A23.62,23.62,0,0,0,65.45,105V370.51A23.61,23.61,0,0,0,89,394.1H241a7.23,7.23,0,0,0,0-14.46l-152-.13a9,9,0,0,1-9-9V166H429.7V300.6a7.59,7.59,0,0,0,.52,2.71h-36L368,277.13a10,10,0,0,0-14.13,14.13l28,28c.18.18.39.31.58.48a9.93,9.93,0,0,0,7.56,3.53h82.15a39,39,0,0,0,76.08-12" transform="translate(0 0)"/></g></g></g></svg>