<svg id="Ebene_1" data-name="Ebene 1" xmlns="http://www.w3.org/2000/svg" xmlns:xlink="http://www.w3.org/1999/xlink" viewBox="0 0 600 600"><defs><style>.cls-1{fill:none;}.cls-2{clip-path:url(#clip-path);}.cls-3{fill:red;}</style><clipPath id="clip-path" transform="translate(0 0)"><rect class="cls-1" width="600" height="600"/></clipPath></defs><g id="Ebene_2" data-name="Ebene 2"><g id="Ebene_1-2" data-name="Ebene 1-2"><rect class="cls-1" width="600" height="600"/><g class="cls-2"><path class="cls-3" d="M421.85,246.36a10,10,0,0,1-13.89,3h0c-28.35-18.31-73.76-23.06-113-11.8a10.06,10.06,0,1,1-5.55-19.34h0c44.5-12.77,96.54-7.05,129.48,14.23a10.06,10.06,0,0,1,3,13.91h0M304.78,333.47H287.83l3-12h16a63.09,63.09,0,0,1,9.3-21.52,54,54,0,0,1,31.25-21.81,72.45,72.45,0,0,1,18.06-2.34,85.7,85.7,0,0,1,20.44,2.2,89,89,0,0,1,13.63,4.28l-7.2,21.91a66.46,66.46,0,0,0-6.72-2.29c-1.82-.49-4.53-1-8.13-1.7a53.62,53.62,0,0,0-9.2-1,52.31,52.31,0,0,0-9.35.88,31.29,31.29,0,0,0-9.39,3.31,28.78,28.78,0,0,0-8.28,6.81,33.94,33.94,0,0,0-6.09,11.3h50.63l-3.21,12H332.72a81.49,81.49,0,0,0-.78,10.12,68.18,68.18,0,0,0,.58,9.25h43.24l-3.12,12H334.08a42.84,42.84,0,0,0,5,14.9,28.81,28.81,0,0,0,8,9,26.55,26.55,0,0,0,9.79,4.34,49.24,49.24,0,0,0,10.27,1.12A75,75,0,0,0,393.33,390l7.11,22.1a60,60,0,0,1-9.45,3,126.4,126.4,0,0,1-13.53,2.39,110.21,110.21,0,0,1-13.83,1,69.43,69.43,0,0,1-19.33-2.72,48.82,48.82,0,0,1-17.18-9,54.32,54.32,0,0,1-13.39-16.55q-5.6-10.27-7.93-25.27h-18l3-12h13.54c-.14-1.42-.2-2.89-.2-4.38V344a97.87,97.87,0,0,1,.59-10.41m-58.86-43.25a20.55,20.55,0,1,1-20.55-20.55h0a20.55,20.55,0,0,1,20.55,20.55m280.29,27.14c0-81.13-87.3-147.14-194.61-147.14-37.3,0-73.18,7.89-104.37,22.89-22.64-22-85.09-18.31-102.2-14.76A10.06,10.06,0,0,0,117.1,190c7,41,24.26,56.69,40.1,62A123.24,123.24,0,0,0,139,296.08c-16.32,3.35-28.34,4.33-36.61,3a10.08,10.08,0,0,0-11.51,8.39,10.39,10.39,0,0,0-.08,2.43c.41,4.67.69,9.15,1,13.4,1.2,19.51,2.2,36.33,15.07,47.16,9.9,8.32,25,11.27,48.39,9.37,9.28,16.51,20.13,27.19,35,38.74L187.09,474a14.21,14.21,0,0,0,1.2,10.48,15,15,0,0,0,10.85,7.68c14.7,2.37,50.36,8,63.92,9.08.44,0,.89.05,1.33.05,6.77,0,12.56-4.14,14.05-10.23,4-16.41,7.31-25.55,9.41-30.37a254.61,254.61,0,0,0,43.75,3.81c9.77,0,22.74-.66,31.62-1.2l1.48,21.24a18,18,0,0,0,18.2,16.75h56.63a18.09,18.09,0,0,0,17.22-11.84l31-84.16c25.15-25.51,38.43-55.87,38.43-87.93" transform="translate(0 0)"/></g></g></g></svg>